<?xml version="1.0" encoding="utf-8"?>
<!-- Generator: Adobe Illustrator 26.0.2, SVG Export Plug-In . SVG Version: 6.00 Build 0)  -->
<svg version="1.1" id="Layer_1" xmlns="http://www.w3.org/2000/svg" xmlns:xlink="http://www.w3.org/1999/xlink" x="0px" y="0px"
	 viewBox="0 0 807.44 595.07" style="enable-background:new 0 0 807.44 595.07;" xml:space="preserve">
<style type="text/css">
	.st0{fill:#C9AC63;}
	.st1{fill:#375169;}
	.st2{fill:none;}
</style>
<g>
	<g>
		<g>
			<g>
				<path class="st0" d="M632.57,401.4l1.1-11.09h6.71l-0.28-2.84h-11.52l-1.1,11.09c-0.96,8.85-0.46,14.07,0.32,17.14
					c0.15,0.24,0.26,0.51,0.32,0.79c0.02,0.11-0.01,0.22,0,0.34c0.81,2.43,1.75,3.03,1.75,3.03l-0.74,1.07h-21.2
					c-0.95,1.39-1.63,1.76-1.63,1.76l0.37,1.07h27.56l0.74-1.07C634.96,422.7,630.55,420.01,632.57,401.4z"/>
			</g>
			<g>
				<polygon class="st0" points="630.63,368.86 636.03,368.86 637.05,359.31 634.35,334.12 				"/>
			</g>
			<path id="XMLID_00000088118646522691732420000000794060088280975004_" class="st1" d="M655.59,289.6l0.56,1.25
				c0,0-4.41,2.51-2.39,21.3l3.31,30.6c1.47,13.42,5.15,15.21,5.15,15.21s-3.31,1.61-1.84,15.21l2.39,22.55
				c2.03,18.61,6.98,21.3,6.98,21.3l-0.36,1.07h-27.75l-0.55-1.07c0,0,4.41-2.68,2.39-21.3l-1.1-11.09h-18.01l-1.1,11.09
				c-2.02,18.61,2.39,21.3,2.39,21.3l-0.74,1.07h-27.56l-0.37-1.07c0,0,4.96-2.68,6.98-21.3l2.39-22.55
				c1.47-13.6-1.83-15.21-1.83-15.21s3.68-1.79,5.14-15.21l3.31-30.6c2.02-18.79-2.39-21.3-2.39-21.3l0.55-1.25H655.59
				 M625.83,371.39h15.07l-7.35-68.54h-0.37L625.83,371.39"/>
			<path class="st0" d="M672.14,417.8c1.05,1.63,1.82,2.06,1.82,2.06l-0.36,1.07h-21.95c-0.66,1.39-1.25,1.76-1.25,1.76l0.55,1.07
				h27.75l0.36-1.07c0,0-4.96-2.68-6.98-21.3l-2.39-22.55c-1.46-13.6,1.84-15.21,1.84-15.21s-3.68-1.79-5.15-15.21l-3.31-30.6
				c-2.02-18.79,2.39-21.3,2.39-21.3l-0.55-1.25h-5.73c-1.14,2.27-2.5,7.6-1.2,19.71l3.31,30.6c0.5,4.54,1.25,7.73,2.02,9.98
				c0.05,0.06,0.1,0.11,0.13,0.15c0.67,0.38,2.2,1.31,1.96,3.3c0,0,0.87,0.87,1.03,1.77c0,0-3.31,1.61-1.84,15.21l2.39,22.55
				c0.79,7.27,2.03,12.09,3.25,15.29c0.39,0.56,0.68,0.86,0.8,0.97c0.3,0.12,0.82,0.52,0.97,0.76
				C672.35,416.17,672.38,416.68,672.14,417.8z"/>
		</g>
		<g>
			<path id="XMLID_00000098925270007717309950000017998545900439424927_" class="st0" d="M476.37,374.74c0,0-0.46,1.05-3.15,2.12
				l1.73,12.04h-43.55c-0.75,1.27-1.34,1.59-1.34,1.59l0.55,1.25h49.43l-2.39-16.64L476.37,374.74z"/>
			<path id="XMLID_00000142156309936781726800000007671452486024513722_" class="st0" d="M476.37,312.28l1.29-0.54l2.39-16.46h-5.51
				l-1.98,13.63l-1.24,0.52C475.69,310.7,476.37,312.28,476.37,312.28z"/>
			<path id="XMLID_00000016784986792283038750000001486118433890480814_" class="st1" d="M470.72,289.6h0.01 M470.72,289.6
				l-2.39,16.46l-1.29,0.54c0,0-1.84-4.47-20.21-4.47h-3.31v23.8h21.86L463,342.57l-1.1,0.36c0,0-1.83-4.12-18.37-4.3v34.72h3.31
				c18.37,0,20.21-4.3,20.21-4.3l1.29,0.36l2.39,16.64h-49.43l-0.56-1.25c0,0,4.41-2.33,4.41-20.22v-12.35
				c0-12.88-3.31-14.49-3.31-14.49s3.31-1.61,3.31-14.5V310.9c0-17.72-4.41-20.22-4.41-20.22l0.56-1.07H470.72 M465.39,325.93h0.01
				 M470.72,291.5h0.01H470.72L470.72,291.5z"/>
			<g>
				<path class="st0" d="M469.21,331.61l-1.98,13.81l-1.1,0.36l0.1,0.02c4.17,1.23,5,2.82,5,2.82l1.1-0.36l2.39-16.64H469.21z"/>
				<path class="st0" d="M460.24,343.86c-0.11-0.13-0.9-0.96-3.49-1.76c-2.37-0.34-5.3-0.59-9-0.63v29.97
					c1.89-0.02,3.58-0.08,5.1-0.18v-26.96c3.56,0.04,6.12,0.17,8.38,0.47c0.24,0.03,0.51,0.07,0.67,0.06
					C461.22,344.83,460.58,344.47,460.24,343.86z"/>
			</g>
			<g>
				<path class="st0" d="M467.05,308.5c-0.25,0-0.49-0.05-0.73-0.14c-0.41-0.17-0.75-0.48-0.95-0.87c-0.11-0.13-0.93-1.03-3.73-1.87
					c-2.71-0.39-6.16-0.65-10.58-0.65h-3.31v19.06h5.1v-16.23h3.31C461.08,307.81,467.05,308.5,467.05,308.5z"/>
			</g>
		</g>
		<g id="XMLID_00000068659290115011558390000011995889402266726052_">
			<path id="XMLID_00000062158737542777274400000006745086580842356617_" class="st1" d="M268.84,465.68V437.8h5.52
				c2.45,0,4.24,0.72,5.36,2.12c1.13,1.25,1.67,3.18,1.67,5.71c0,2.53-0.54,4.43-1.67,5.75c-0.04,0.07-0.16,0.19-0.31,0.34
				c0.16,0.15,0.27,0.26,0.31,0.38c1.13,1.32,1.67,3.22,1.67,5.75s-0.54,4.47-1.67,5.71c-1.17,1.4-2.95,2.12-5.36,2.12H268.84z
				 M272.49,441.35v8.59h1.86c0.82,0,1.44-0.11,1.79-0.3c0.35-0.19,0.62-0.34,0.74-0.53c0.54-0.65,0.82-1.78,0.82-3.48
				c0-1.97-0.35-3.03-0.93-3.63c-0.62-0.57-1.48-0.64-2.41-0.64H272.49z M272.49,453.5v8.62h1.86c0.93,0,1.79-0.07,2.41-0.68
				c0.58-0.57,0.93-1.63,0.93-3.59c0-2.01-0.39-3.1-0.97-3.71c-0.62-0.57-1.44-0.64-2.37-0.64H272.49z"/>
			<path id="XMLID_00000096740893831769056590000000915554738935261865_" class="st1" d="M297.91,457.89h-4.97l-1.82,7.79h-3.77
				l6.61-27.88h2.91l6.68,27.88h-3.81L297.91,457.89z M293.79,454.33h3.26l-1.63-6.85L293.79,454.33z"/>
			<path id="XMLID_00000123426262943440857820000007837655613219851913_" class="st1" d="M320.68,465.64h-12.47v-27.88h3.65v24.33
				h8.82V465.64z"/>
			<path id="XMLID_00000035528671668791992620000016766223476524202893_" class="st1" d="M330.75,465.68h-3.65V437.8h3.65V465.68z"
				/>
			<path id="XMLID_00000103965474027406434100000001985878467996447628_" class="st1" d="M353.53,449.9h11.92v3.56h-11.92V449.9z"/>
			<path id="XMLID_00000106119830582374553720000016353306589662120076_" class="st1" d="M392.7,465.68h-3.65V437.8h3.65V465.68z"/>
			<path id="XMLID_00000018199718229880631570000015856753804843078532_" class="st1" d="M410.27,465.64l-6.99-16.87v16.87h-3.65
				v-27.88h3.07l6.99,16.87v-16.87h3.69v27.88H410.27z"/>
			<path id="XMLID_00000146475172809154067430000011457577428652731526_" class="st1" d="M420.03,465.68V437.8h5.71
				c4.94,0,7.26,2.95,7.26,8.06v11.73c0,5.11-2.33,8.09-7.26,8.09H420.03z M423.68,441.35v20.77h2.06c0.93,0,1.83-0.11,2.49-0.72
				c0.62-0.61,1.09-1.74,1.09-3.82v-11.73c0-2.08-0.47-3.22-1.09-3.82c-0.66-0.61-1.55-0.68-2.49-0.68H423.68z"/>
			<path id="XMLID_00000138541137381514637890000005258093205080835475_" class="st1" d="M439.15,445.7c0-2.46,0.54-4.39,1.63-5.75
				c0.43-0.49,1.01-1.02,1.86-1.48c0.85-0.42,1.9-0.72,3.3-0.72c2.8,0,4.35,1.17,5.17,2.19c1.09,1.36,1.63,3.29,1.63,5.75v11.99
				c0,2.46-0.54,4.39-1.63,5.75c-0.82,1.02-2.37,2.19-5.17,2.19c-2.76,0-4.35-1.17-5.17-2.19c-1.09-1.36-1.63-3.29-1.63-5.75V445.7z
				 M442.8,457.7c0,2.23,0.5,3.29,1.16,3.82c0.66,0.53,1.4,0.57,1.98,0.57c0.5,0,1.32-0.04,1.98-0.57s1.17-1.59,1.17-3.82V445.7
				c0-2.16-0.51-3.29-1.17-3.82s-1.48-0.53-1.98-0.53c-0.58,0-1.32,0-1.98,0.53c-0.66,0.53-1.16,1.66-1.16,3.82V457.7z"/>
			<path id="XMLID_00000120520831834602662700000014167104854453985715_" class="st1" d="M469.42,465.64l-6.99-16.87v16.87h-3.65
				v-27.88h3.07l6.99,16.87v-16.87h3.69v27.88H469.42z"/>
			<path id="XMLID_00000181045406484364580150000014254238513139549886_" class="st1" d="M491.03,437.8v3.56h-8.2v8.59h8.2v3.56
				h-8.2v8.62h8.2v3.56h-11.85V437.8H491.03z"/>
			<path id="XMLID_00000169557400342311830330000007747879266621977993_" class="st1" d="M497.52,455.95h3.65v1.78
				c0,1.63,0.31,2.8,0.89,3.52c0.12,0.19,0.35,0.34,0.7,0.53c0.35,0.19,0.85,0.3,1.59,0.3c1.4,0,2.18-0.68,2.64-1.52
				c0.43-0.83,0.51-1.89,0.51-2.65c0-1.32-0.47-2.19-1.13-2.84c-0.66-0.6-1.56-1.02-2.37-1.36l-0.7-0.3
				c-0.82-0.34-2.22-0.91-3.46-2.08c-1.55-1.47-2.33-3.33-2.33-5.6c0-2.38,0.66-4.39,1.9-5.79c1.21-1.36,2.91-2.19,4.93-2.19
				c2.8,0,4.35,1.17,5.17,2.19c1.13,1.4,1.67,3.33,1.67,5.79v1.78h-3.69v-1.78c0-2.16-0.51-3.33-1.17-3.86s-1.48-0.53-1.98-0.53
				c-1.51,0-2.25,0.8-2.68,1.78c-0.47,0.98-0.5,2.12-0.5,2.61c0,1.32,0.47,2.19,1.13,2.88c0.66,0.68,1.55,1.17,2.49,1.51l0.62,0.27
				c0.74,0.3,2.14,0.8,3.38,1.97c1.59,1.44,2.41,3.29,2.41,5.56c0,4.28-2.45,7.72-6.84,7.72c-4.54,0-6.84-2.91-6.84-7.91V455.95z"/>
			<path id="XMLID_00000006695386106804141710000015458551186549096069_" class="st1" d="M521.65,465.68H518V437.8h3.65V465.68z"/>
			<path id="XMLID_00000176757458989476563470000007567479953610791850_" class="st1" d="M539.14,457.89h-4.97l-1.83,7.79h-3.77
				l6.61-27.88h2.91l6.68,27.88h-3.81L539.14,457.89z M535.02,454.33h3.26l-1.63-6.85L535.02,454.33z"/>
		</g>
		<path id="XMLID_00000132047482042577878110000000518440381510156419_" class="st0" d="M601.55,316.57
			c1.83-17.72,6.61-20.22,6.61-20.22l-0.36-1.07h-6.37c-1.56,2.31-3.84,7.44-4.98,18.46l-1.47,12.35
			c-1.29,12.88,1.84,14.5,1.84,14.5s-3.5,1.61-4.96,14.49l-1.29,12.35c-1.84,17.9,2.39,20.22,2.39,20.22l-0.55,1.25h-38.15
			c-0.5,1.27-1.04,1.59-1.04,1.59l0.73,1.25h43.55l0.55-1.25c0,0-4.23-2.33-2.39-20.22l1.29-12.35c1.46-12.88,4.96-14.49,4.96-14.49
			s-3.13-1.61-1.84-14.5L601.55,316.57z"/>
		<path id="XMLID_00000023245402414557810560000005268565104612285091_" class="st1" d="M195.96,128.38
			c13.05,0,23.52,10.38,23.52,22.91v15.39l-19.1-6.44v-11.28c0-4.11-3.31-7.34-7.54-7.34h-2.94c-4.04,0-7.53,3.22-7.53,7.34v17.36
			c0,4.65,2.39,8.95,6.43,11.63c4.45,1.88,7.21,2.33,8.84,2.33c1.47,0,2-0.36,2-0.36s-0.19,2.15,4.05,5.73l2.02,1.08
			c2.2,1.07,4.05,2.32,5.7,3.94c5.15,4.65,8.08,11.09,8.08,18.25v29.35c0,12.7-10.47,22.91-23.52,22.91h-9.19
			c-13.05,0-23.52-10.2-23.52-22.91v-13.24l19.11-6.44v22.19c0,3.94,3.49,7.34,7.53,7.34h2.94c4.22,0,7.54-3.4,7.54-7.34v-27.2
			c0-4.47-2.21-8.77-5.88-11.45c-4.25-1.75-6.94-2.17-8.56-2.17c-1.53,0-2.1,0.38-2.1,0.38s0-2.33-4.6-6.09l-2.2-1.07
			c-1.83-0.89-3.67-2.15-5.33-3.58c-5.33-4.65-8.45-11.45-8.45-18.61v-19.69c0-12.53,10.47-22.91,23.52-22.91H195.96 M199.64,179.92
			h0.01"/>
		<g>
			<path class="st0" d="M186.59,225.97v17.64c0,0.57,0.1,1.12,0.23,1.66c0.9,0.59,1.96,0.94,3.07,0.94h1.79v-21.95L186.59,225.97z"
				/>
		</g>
		<g>
			<path class="st0" d="M193.16,206c0,0,0.65-0.4,2.36-0.35c-0.58-0.68-1.23-1.31-1.96-1.86c-0.67-0.27-1.28-0.49-1.86-0.7
				C193.09,204.91,193.16,206,193.16,206z"/>
		</g>
		<g>
			<path class="st0" d="M220.72,196.34c-1.36-1.33-2.91-2.38-4.63-3.32c0.76,1.01,1.44,2.06,2.04,3.15
				c3.56,4.32,5.57,9.7,5.57,15.58v29.35c0,12.7-10.47,22.91-23.52,22.91H191c-2.55,0-5-0.41-7.29-1.14
				c-0.36-0.04-0.7-0.1-1.06-0.16c3.81,2.59,8.42,4.13,13.45,4.13h9.19c13.05,0,23.52-10.2,23.52-22.91v-29.35
				C228.8,207.43,225.87,200.99,220.72,196.34z"/>
		</g>
		<g>
			<path class="st0" d="M186.59,151.8v17.36c0,1.93,0.43,3.8,1.21,5.52c0.58,0.58,1.2,1.12,1.9,1.6c1.19,0.5,2.23,0.88,3.16,1.17
				c-0.76-1.7-1.17-3.55-1.17-5.46v-17.36c0-3.77,2.94-6.76,6.53-7.24c-0.37-1.21-1.13-2.25-2.18-2.93h-1.92
				C190.08,144.46,186.59,147.69,186.59,151.8z"/>
		</g>
		<path class="st0" d="M216.71,137c0.66,0.91,1.26,1.86,1.79,2.85c3.25,3.93,5.21,8.89,5.21,14.28v15.39l0,0.52l-14-4.65v1.37
			l19.11,6.44v-16.24C228.8,148.43,223.92,140.94,216.71,137z"/>
		<path id="XMLID_00000048483738131093113300000011529964855073334435_" class="st1" d="M299.4,162.74l0.56,1.07
			c0,0-4.59,2.51-4.59,20.22v15.21c0.55,10.2,3.31,11.63,3.31,11.63s-2.76,1.43-3.31,11.63v16.82c0,12.17-9.93,21.83-22.42,21.83
			h-8.64c-12.49,0-22.6-9.66-22.6-21.83v-16.82c-0.36-10.2-3.31-11.63-3.31-11.63s2.94-1.43,3.31-11.63v-15.21
			c0-17.72-4.41-20.22-4.41-20.22l0.37-1.07h26.46l0.37,1.07c0,0-4.41,2.51-4.41,20.22v12.35c0,12.88,3.31,14.5,3.31,14.5
			s-3.31,1.61-3.31,14.49v16.29c0,3.76,3.12,6.98,7.17,6.98H270c3.86,0,7.17-3.22,7.17-6.98v-16.29c0-12.88-3.49-14.49-3.49-14.49
			s3.49-1.61,3.49-14.5v-12.35c0-17.72-4.59-20.22-4.59-20.22l0.56-1.07H299.4"/>
		<g>
			<path class="st0" d="M264.3,199.23c0,12.88,3.31,14.5,3.31,14.5s-3.31,1.61-3.31,14.49v16.29c0,0.5,0.07,0.99,0.18,1.47
				c0.81,0.48,1.75,0.78,2.76,0.78h2.16v-15.69c0-12.88,3.31-14.49,3.31-14.49s-3.31-1.61-3.31-14.5v-12.35
				c0-15.8,3.5-19.49,4.26-20.11c-0.13-0.43-0.26-0.83-0.39-1.19h-5.97c-1.29,2.31-2.99,7.44-2.99,18.46V199.23z"/>
		</g>
		<path class="st0" d="M309.27,169.49l-0.56-1.07h-6.01c-1.34,2.31-3.12,7.44-3.12,18.46v15.21c0.55,10.2,3.31,11.63,3.31,11.63
			s-2.76,1.43-3.31,11.63v16.82c0,12.17-9.93,21.83-22.42,21.83h-8.64c-2.49,0-4.87-0.41-7.1-1.12c-0.32-0.04-0.64-0.09-0.96-0.14
			c3.71,2.57,8.24,4.1,13.16,4.1h8.64c12.49,0,22.42-9.66,22.42-21.83v-16.82c0.55-10.2,3.31-11.63,3.31-11.63
			s-2.76-1.43-3.31-11.63v-15.21C304.68,172,309.27,169.49,309.27,169.49z"/>
		<path id="XMLID_00000028302057470003571050000006420327610364307849_" class="st1" d="M413.85,162.74l0.37,1.07
			c0,0-4.41,2.51-4.41,20.22v12.35c0,12.88,3.31,14.5,3.31,14.5s-3.31,1.61-3.31,14.49v12.35c0,17.9,4.41,20.22,4.41,20.22
			l-0.37,1.25H387.4l-0.37-1.25c0,0,4.41-2.33,4.41-20.22v-41.16l-21.49,62.63h-7.72l-21.68-62.63v41.16
			c0,17.9,4.59,20.22,4.59,20.22l-0.55,1.25h-26.27l-0.56-1.25c0,0,4.59-2.33,4.59-20.22v-12.35c0-12.88-3.31-14.49-3.31-14.49
			s3.31-1.61,3.31-14.5v-12.35c0-17.72-4.59-20.22-4.59-20.22l0.56-1.07h31.97l0.74,1.07c0,0-3.49,2.51,2.75,20.22l12.32,34.18
			l12.13-34.18c6.43-17.72,2.75-20.22,2.75-20.22l0.92-1.07H413.85"/>
		<path class="st0" d="M419.14,243.4v-12.35c0-12.88,3.31-14.49,3.31-14.49s-3.31-1.61-3.31-14.5v-12.35
			c0-17.72,4.41-20.22,4.41-20.22l-0.37-1.07h-6.14c-1.29,2.31-3,7.44-3,18.46v12.35c0,12.88,3.31,14.5,3.31,14.5
			s-3.31,1.61-3.31,14.49v12.35c0,17.9,4.41,20.22,4.41,20.22l-0.37,1.25h-20.39c-0.75,1.27-1.34,1.59-1.34,1.59l0.37,1.25h26.46
			l0.37-1.25C423.55,263.63,419.14,261.3,419.14,243.4z"/>
		<g>
			<polygon class="st0" points="389.54,217.25 374.17,262.04 370.56,262.04 371.54,264.88 379.26,264.88 389.54,234.94 			"/>
		</g>
		<g>
			<path class="st0" d="M366.66,210.93l2.02-5.7l-5.59-15.51c-6.24-17.72-2.75-20.22-2.75-20.22l-0.74-1.07h-5.14
				c-0.47,2.31-0.35,7.44,3.53,18.46L366.66,210.93z"/>
		</g>
		<g>
			<path class="st0" d="M349.86,243.4v-14.09l-5.1-14.73v25.98c0,17.9,4.59,20.22,4.59,20.22l-0.55,1.25h-20.34
				c-0.78,1.27-1.39,1.59-1.39,1.59l0.56,1.25h26.27l0.55-1.25C354.46,263.63,349.86,261.3,349.86,243.4z"/>
		</g>
		<path id="XMLID_00000165211160243165538920000000186575278237591730_" class="st1" d="M467.3,162.74
			c9.56,0,17.46,7.69,17.46,17.18v14.49c0,5.37-2.39,10.02-6.43,13.24c5.14,3.04,8.63,8.41,8.63,14.68v19.68
			c0,9.49-7.9,17.18-17.64,17.18h-36.74l-0.56-1.25c0,0,4.59-2.33,4.59-20.22v-12.35c0-12.88-3.31-14.49-3.31-14.49
			s3.31-1.61,3.31-14.5v-12.35c0-17.72-4.59-20.22-4.59-20.22l0.56-1.07H467.3 M454.81,202.12h6.61c2.76,0,5.15-2.33,5.15-5.01
			v-16.82c0-2.68-2.39-5.01-5.15-5.01h-6.61V202.12 M454.81,246.5h8.63c2.94,0,5.15-2.15,5.15-5.01v-21.83
			c0-2.68-2.2-5.01-5.15-5.01h-8.63V246.5"/>
		<g>
			<path class="st0" d="M465.75,217.48h-6.72v27.12h4.41c0.25,0,0.46-0.08,0.69-0.12v-24.16h2.56v-0.66
				C466.69,218.81,466.33,218.04,465.75,217.48z"/>
		</g>
		<g>
			<path class="st0" d="M463.67,178.11h-4.64v22.11h2.39c1.09,0,2.11-0.61,2.71-1.48v-17.79h0.54v-0.66
				C464.67,179.46,464.28,178.68,463.67,178.11z"/>
		</g>
		<path class="st0" d="M487.65,213.34c4.04-3.22,6.43-7.87,6.43-13.24V185.6c0-6.93-4.25-12.85-10.26-15.56
			c0.29,0.47,0.57,0.96,0.82,1.46c2.69,3.02,4.34,6.95,4.34,11.27v14.49c0,4.85-1.97,9.11-5.33,12.27c1.33,1.4,2.44,2.95,3.28,4.63
			c2.63,2.98,4.25,6.79,4.25,11.02v19.68c0,9.49-7.9,17.18-17.64,17.18h-30.81c-0.78,1.27-1.39,1.59-1.39,1.59l0.56,1.25h36.74
			c9.74,0,17.64-7.69,17.64-17.18v-19.68C496.28,221.75,492.79,216.38,487.65,213.34z"/>
		<g>
			<path id="XMLID_00000027589454904797726140000002729391930347119546_" class="st0" d="M560.4,247.88c0,0-0.46,1.05-3.15,2.12
				l1.73,12.04h-43.55c-0.75,1.27-1.34,1.59-1.34,1.59l0.55,1.25h49.43l-2.39-16.64L560.4,247.88z"/>
			<path id="XMLID_00000011022720618010124320000013568189051024554884_" class="st0" d="M560.4,185.42l1.29-0.54l2.39-16.46h-5.51
				l-1.98,13.63l-1.24,0.52C559.72,183.84,560.4,185.42,560.4,185.42z"/>
			<path id="XMLID_00000023960719943387414930000007004181625257529241_" class="st1" d="M554.76,162.74h0.01 M554.76,162.74
				l-2.39,16.46l-1.29,0.54c0,0-1.84-4.47-20.21-4.47h-3.31v23.8h21.86l-2.39,16.64l-1.1,0.36c0,0-1.83-4.12-18.37-4.3v34.72h3.31
				c18.37,0,20.21-4.3,20.21-4.3l1.29,0.36l2.39,16.64h-49.43l-0.56-1.25c0,0,4.41-2.33,4.41-20.22v-12.35
				c0-12.88-3.31-14.49-3.31-14.49s3.31-1.61,3.31-14.5v-12.35c0-17.72-4.41-20.22-4.41-20.22l0.56-1.07H554.76 M549.43,199.07h0.01
				 M554.76,164.64h0.01H554.76L554.76,164.64z"/>
			<g>
				<path class="st0" d="M553.24,204.75l-1.98,13.81l-1.1,0.36l0.1,0.02c4.17,1.23,5,2.82,5,2.82l1.1-0.36l2.39-16.64H553.24z"/>
				<path class="st0" d="M544.28,217c-0.11-0.13-0.9-0.96-3.49-1.76c-2.37-0.34-5.3-0.59-9-0.63v29.97c1.89-0.02,3.58-0.08,5.1-0.18
					v-26.96c3.56,0.04,6.12,0.17,8.38,0.47c0.24,0.03,0.51,0.07,0.67,0.06C545.26,217.97,544.62,217.61,544.28,217z"/>
			</g>
			<g>
				<path class="st0" d="M551.08,181.64c-0.25,0-0.49-0.05-0.73-0.14c-0.41-0.17-0.75-0.48-0.95-0.87
					c-0.11-0.13-0.93-1.03-3.73-1.87c-2.71-0.39-6.16-0.65-10.58-0.65h-3.31v19.06h5.1v-16.23h3.31
					C545.12,180.95,551.08,181.64,551.08,181.64z"/>
			</g>
		</g>
		<path id="XMLID_00000163766608240092802600000009882524632815618200_" class="st1" d="M611.95,132.68
			c10.1,0,18.37,8.05,18.37,18.07v42.77c0,9.13-6.8,16.64-15.62,17.9c1.66,1.25,3.13,3.04,3.68,5.19l6.44,22.19
			c6.07,18.61,11.58,21.3,11.58,21.3l-0.19,1.07h-29.59l-0.92-1.07c0,0,5.88-2.68-0.19-21.3l-7.71-27.2h-1.1v49.57h-23.52
			l-0.37-1.07c0,0,4.59-2.68,4.59-21.3v-22.55c0-13.6-3.49-15.21-3.49-15.21s3.49-1.79,3.49-15.21v-30.6
			c0-18.79-4.59-21.3-4.59-21.3l0.37-1.25H611.95 M596.7,198.36h9c2.94,0,5.51-2.33,5.51-5.19v-41.88c0-3.04-2.57-5.37-5.51-5.37h-9
			V198.36 M571.9,135.6L571.9,135.6C571.9,135.6,571.9,135.6,571.9,135.6L571.9,135.6z"/>
		<g>
			<path class="st0" d="M605.17,262.41l-0.92-1.07c-0.42-0.49-0.74-1.08-0.56-1.7c0.18-0.62,0.48-1.02,1.1-1.21
				c0.02-0.01,0.76-0.55,1.22-2.38v-7.34c-0.37-2.48-1.08-5.55-2.33-9.39l-2.76-9.75v34.43h-17.38c-0.79,1.39-1.41,1.76-1.41,1.76
				l0.37,1.07h23.52v-3.91C605.7,262.83,605.4,262.67,605.17,262.41z"/>
		</g>
		<path class="st0" d="M639.48,260.84c0.95,1.32,1.13,2.1,1.13,2.1l-0.19,1.07h-23.9c-0.71,1.39-1.5,1.76-1.5,1.76l0.92,1.07h29.59
			l0.19-1.07c0,0-5.51-2.68-11.58-21.3l-6.43-22.19c-0.55-2.15-2.02-3.94-3.68-5.19c8.82-1.25,15.62-8.77,15.62-17.9v-42.77
			c0-7.23-4.34-13.38-10.54-16.27c0.34,0.53,0.65,1.07,0.93,1.62c2.79,3.16,4.51,7.28,4.51,11.81v42.77
			c0,8.94-6.52,16.32-15.08,17.8c0.14,0.28,0.23,0.58,0.34,0.87c1.28,1.18,2.35,2.67,2.79,4.42l6.43,22.19
			c2.27,6.98,4.47,11.72,6.33,14.92c1.16,1.41,1.86,1.84,1.86,1.84C638.1,259.05,638.93,260.18,639.48,260.84z"/>
		<g>
			<path class="st0" d="M608.15,148.76h-7.23v47.7h4.78c0.11,0,0.21-0.02,0.32-0.03V151.6h3.29v-0.31
				C609.31,150.29,608.86,149.4,608.15,148.76z"/>
		</g>
		<g>
			<path class="st0" d="M165.57,401.4l1.1-11.09h6.71l-0.28-2.84h-11.52l-1.1,11.09c-0.96,8.85-0.46,14.07,0.32,17.14
				c0.15,0.24,0.26,0.51,0.32,0.79c0.02,0.11-0.01,0.22,0,0.34c0.81,2.43,1.75,3.03,1.75,3.03l-0.74,1.07h-21.2
				c-0.95,1.39-1.63,1.76-1.63,1.76l0.37,1.07h27.56l0.74-1.07C167.95,422.7,163.55,420.01,165.57,401.4z"/>
		</g>
		<g>
			<polygon class="st0" points="163.62,368.86 169.02,368.86 170.04,359.31 167.34,334.12 			"/>
		</g>
		<path id="XMLID_00000122702772093067084960000008148285919700286902_" class="st1" d="M237.54,289.6l0.37,1.07
			c0,0-4.41,2.51-4.41,20.22v12.35c0,12.88,3.31,14.5,3.31,14.5s-3.31,1.61-3.31,14.49v12.35c0,17.9,4.41,20.22,4.41,20.22
			l-0.37,1.25h-26.46l-0.37-1.25c0,0,4.41-2.33,4.41-20.22v-12.35c0-12.88-3.31-14.49-3.31-14.49s3.31-1.61,3.31-14.5V310.9
			c0-17.72-4.41-20.22-4.41-20.22l0.37-1.07H237.54"/>
		<path class="st0" d="M242.82,370.26v-12.35c0-12.88,3.31-14.49,3.31-14.49s-3.31-1.61-3.31-14.5v-12.35
			c0-17.72,4.41-20.22,4.41-20.22l-0.37-1.07h-6.14c-1.29,2.31-3,7.44-3,18.46v12.35c0,4.66,0.44,7.84,0.99,10
			c0.39,0.45,0.63,1.04,0.63,1.66c0,0.08-0.02,0.15-0.03,0.23c0.85,2.16,1.72,2.6,1.72,2.6s-3.31,1.61-3.31,14.49v12.35
			c0,7.63,0.8,12.41,1.72,15.41c0.74,0.57,1.09,1.5,0.93,2.43c0.94,1.94,1.76,2.39,1.76,2.39l-0.37,1.25h-20.39
			c-0.75,1.27-1.34,1.59-1.34,1.59l0.37,1.25h26.46l0.37-1.25C247.23,390.49,242.82,388.16,242.82,370.26z"/>
		<path id="XMLID_00000180331841737424624720000005724970229780062374_" class="st1" d="M288.69,289.6
			c9.74,0,17.64,7.69,17.64,17.18v23.98c0,8.23-6.06,15.21-14.15,16.82c2.39,1.43,4.42,3.76,5.33,6.62l3.31,10.38
			c5.88,17.9,11.21,20.22,11.21,20.22l-0.19,1.25h-3.86h-22.42l-0.92-1.25c0,0,3.68-2.33-2.02-20.22l-5.33-16.64h-3.12v38.12h-22.42
			l-0.37-1.25c0,0,4.41-2.33,4.41-20.22v-12.35c0-12.88-3.31-14.49-3.31-14.49s3.31-1.61,3.31-14.5V310.9
			c0-17.72-4.41-20.22-4.41-20.22l0.37-1.07H288.69 M274.18,335.24h8.63c2.76,0,5.15-2.15,5.15-5.01v-23.09
			c0-2.68-2.39-5.01-5.15-5.01h-8.63V335.24"/>
		<g>
			<path class="st0" d="M282.62,386.31c-0.42-0.57-0.58-1.28-0.45-1.97c0.1-0.52,0.36-0.99,0.73-1.36c0.23-0.5,1.58-4.25-2.67-17.63
				l-1.82-5.68v29.21h-16.35c-0.75,1.27-1.34,1.59-1.34,1.59l0.37,1.25h22.42v-4.21L282.62,386.31z"/>
		</g>
		<g>
			<path class="st0" d="M283.95,304.97h-5.54v27.74h4.41c0.23,0,0.46-0.06,0.69-0.13V307.8h1.93v-0.66
				C285.43,306.23,284.8,305.39,283.95,304.97z"/>
		</g>
		<path class="st0" d="M310.15,370.26l-3.31-10.38c-0.92-2.86-2.94-5.19-5.33-6.62c8.09-1.61,14.15-8.59,14.15-16.82v-23.98
			c0-6.52-3.74-12.16-9.23-15.07c0.52,0.93,0.94,1.91,1.3,2.91c1.79,2.69,2.84,5.88,2.84,9.32v23.98c0,7.63-5.22,14.11-12.42,16.32
			c0.74,1.11,1.39,2.27,1.79,3.52l0.12,0.38c0.71,0.98,1.31,2.04,1.69,3.23l3.31,10.38c1.17,3.58,2.32,6.51,3.42,8.94
			c2.65,4.82,4.53,6.07,4.69,6.17c0.98,0.48,1.55,1.55,1.39,2.64l-0.14,0.93c1.16,1.22,1.86,1.54,1.86,1.54l-0.18,1.25h-3.86h-17.4
			c-0.34,1.27-0.83,1.59-0.83,1.59l0.92,1.25h22.42h3.86l0.18-1.25C321.36,390.49,316.03,388.16,310.15,370.26z"/>
		<path id="XMLID_00000101090970193452117380000001728675831455718822_" class="st1" d="M383.36,289.6
			c12.49,0,22.42,9.84,22.42,21.83v14.67c0.55,10.2,3.31,11.63,3.31,11.63s-2.76,1.43-3.31,11.63v14.68
			c0,12.17-9.93,22.01-22.42,22.01h-35.1l-0.37-1.25c0,0,4.41-2.33,4.41-20.22v-12.35c0-12.88-3.31-14.49-3.31-14.49
			s3.31-1.61,3.31-14.5V310.9c0-17.72-4.41-20.22-4.41-20.22l0.37-1.07H383.36 M370.69,373.36h9.73c3.86,0,7.17-3.04,7.17-6.98
			v-57.27c0-3.76-3.31-6.98-7.17-6.98h-9.73V373.36"/>
		<g>
			<path class="st0" d="M382,304.97h-7.09v65.86h5.1V307.8h4.8C384.36,306.52,383.31,305.46,382,304.97z"/>
		</g>
		<path class="st0" d="M415.11,331.78v-14.67c0-7.78-4.21-14.63-10.56-18.49c0.88,1.37,1.61,2.84,2.19,4.37
			c2.06,3.3,3.27,7.15,3.27,11.28v14.67c0.17,3.14,0.55,5.44,0.99,7.14c0.39,0.45,0.62,1.04,0.62,1.66c0,0.07-0.02,0.14-0.03,0.21
			c0.86,2.18,1.72,2.63,1.72,2.63s-2.76,1.43-3.31,11.63v14.68c0,12.17-9.93,22.01-22.42,22.01h-29.03
			c-0.75,1.27-1.34,1.59-1.34,1.59l0.37,1.25h35.1c12.49,0,22.42-9.84,22.42-22.01v-14.68c0.55-10.2,3.31-11.63,3.31-11.63
			S415.65,341.98,415.11,331.78z"/>
		<path id="XMLID_00000075154318992973322080000006736622523331906468_" class="st1" d="M598.47,289.6l0.36,1.07
			c0,0-4.78,2.51-6.61,20.22l-1.47,12.35c-1.29,12.88,1.84,14.5,1.84,14.5s-3.5,1.61-4.96,14.49l-1.29,12.35
			c-1.84,17.9,2.39,20.22,2.39,20.22l-0.56,1.25h-43.55l-0.73-1.25c0,0,4.05-2.33,0.18-20.22l-4.05-19.33L536,364.59
			c-3.86,17.9,0.18,20.22,0.18,20.22l-0.74,1.25h-43.36l-0.56-1.25c0,0,4.23-2.33,2.21-20.22l-1.29-12.35
			c-1.47-12.88-4.96-14.49-4.96-14.49s3.12-1.61,1.83-14.5l-1.29-12.35c-2.02-17.72-6.8-20.22-6.8-20.22l0.37-1.07h26.46l0.56,1.07
			c0,0-4.22,2.51-2.39,20.22l6.8,62.46h2.76l13.23-62.46c0.73-3.58,1.28-6.62,1.46-9.13c0.74-9.48-1.65-11.09-1.65-11.09l0.73-1.07
			h21.13l0.56,1.07c0,0-2.39,1.61-1.47,11.09c0.18,2.51,0.55,5.55,1.29,9.13l13.23,62.46h2.75l6.8-62.46
			c2.03-17.72-2.2-20.22-2.2-20.22l0.55-1.07H598.47"/>
		<g>
			<path class="st0" d="M555.29,313.74l10.37,48.95l1.53-14.02l-6.8-32.1c-0.74-3.58-1.1-6.62-1.29-9.13
				c-0.92-9.48,1.47-11.09,1.47-11.09l-0.55-1.07h-5.55c-0.52,1.54-0.95,4.34-0.47,9.33C554.18,307.11,554.55,310.16,555.29,313.74z
				"/>
		</g>
		<g>
			<path class="st0" d="M544.35,388.56c-0.79-0.09-1.56-0.35-1.97-1.05l-0.73-1.25c-0.34-0.58-0.37-1.45-0.2-2.1
				c0.14-0.53,0.44-0.99,0.87-1.33c0.27-0.4,2.26-3.95-0.71-17.73l-0.45-2.14l-0.93,4.46c-3.86,17.9,0.18,20.22,0.18,20.22
				l-0.74,1.25h-37.64c-0.62,1.27-1.18,1.59-1.18,1.59l0.55,1.25h43.37l0.74-1.25C545.5,390.49,544.87,390.1,544.35,388.56z"/>
		</g>
		<g>
			<path class="st0" d="M507.92,313.74l5.22,47.94l3.16-14.93l-3.28-30.17c-1.83-17.72,2.39-20.22,2.39-20.22l-0.55-1.07h-5.8
				C507.98,297.58,506.78,302.72,507.92,313.74z"/>
		</g>
		<path id="XMLID_00000069366462382801330100000000874849760539419027_" class="st1" d="M188.58,289.6l0.56,1.25
			c0,0-4.41,2.51-2.39,21.3l3.31,30.6c1.47,13.42,5.15,15.21,5.15,15.21s-3.31,1.61-1.84,15.21l2.39,22.55
			c2.03,18.61,6.98,21.3,6.98,21.3l-0.36,1.07h-27.75l-0.55-1.07c0,0,4.41-2.68,2.39-21.3l-1.1-11.09h-18.01l-1.1,11.09
			c-2.02,18.61,2.39,21.3,2.39,21.3l-0.74,1.07h-27.56l-0.37-1.07c0,0,4.96-2.68,6.98-21.3l2.39-22.55
			c1.47-13.6-1.83-15.21-1.83-15.21s3.68-1.79,5.14-15.21l3.31-30.6c2.02-18.79-2.39-21.3-2.39-21.3l0.55-1.25H188.58
			 M158.82,371.39h15.07l-7.35-68.54h-0.37L158.82,371.39"/>
		<path class="st0" d="M205.14,417.8c1.05,1.63,1.82,2.06,1.82,2.06l-0.36,1.07h-21.95c-0.66,1.39-1.25,1.76-1.25,1.76l0.55,1.07
			h27.75l0.36-1.07c0,0-4.96-2.68-6.98-21.3l-2.39-22.55c-1.46-13.6,1.84-15.21,1.84-15.21s-3.68-1.79-5.15-15.21l-3.31-30.6
			c-2.02-18.79,2.39-21.3,2.39-21.3l-0.55-1.25h-5.73c-1.14,2.27-2.5,7.6-1.2,19.71l3.31,30.6c0.5,4.54,1.25,7.73,2.02,9.98
			c0.05,0.06,0.1,0.11,0.13,0.15c0.67,0.38,2.2,1.31,1.96,3.3c0,0,0.87,0.87,1.03,1.77c0,0-3.31,1.61-1.84,15.21l2.39,22.55
			c0.79,7.27,2.03,12.09,3.25,15.29c0.39,0.56,0.68,0.86,0.8,0.97c0.3,0.12,0.82,0.52,0.97,0.76
			C205.34,416.17,205.37,416.68,205.14,417.8z"/>
	</g>
</g>
<rect y="0" class="st2" width="807.44" height="595.07"/>
</svg>
